<svg width="23" height="17" viewBox="0 0 23 17" fill="none" xmlns="http://www.w3.org/2000/svg">
<g clip-path="url(#clip0_129_860)">
<path d="M0 0H23V17H0V0Z" fill="#EE1C25"/>
<path d="M2.76002 6.28995L4.3125 1.69995L5.86498 6.28995L1.72504 3.48495H6.89997L2.76002 6.28995Z" fill="#FFFF00"/>
<path d="M9.49362 1.78791L7.89592 2.13684L8.96165 0.912959L8.85712 2.56014L7.9705 1.10189L9.49362 1.78791Z" fill="#FFFF00"/>
<path d="M11.1061 3.8018L9.49612 3.51275L10.9601 2.79201L10.2155 4.27031L9.97215 2.58731L11.1061 3.8018Z" fill="#FFFF00"/>
<path d="M10.8711 6.62725L9.52079 5.71621L11.1557 5.64657L9.8641 6.69705L10.3384 5.06258L10.8711 6.62725Z" fill="#FFFF00"/>
<path d="M8.84021 8.47301L7.95169 7.11868L9.48705 7.67675L7.88397 8.15408L8.96203 6.82698L8.84021 8.47301Z" fill="#FFFF00"/>
</g>
<defs>
<clipPath id="clip0_129_860">
<rect width="23" height="17" fill="white"/>
</clipPath>
</defs>
</svg>
