<svg width="17" height="14" viewBox="0 0 17 14" fill="none" xmlns="http://www.w3.org/2000/svg">
<path d="M11.1818 2.34427H3.67136L4.15261 1.86302C4.57552 1.4401 4.57552 0.740104 4.15261 0.317187C3.72969 -0.105729 3.02969 -0.105729 2.60677 0.317187L0.317188 2.60677C-0.105729 3.02969 -0.105729 3.72969 0.317188 4.1526L2.60677 6.44223C2.82552 6.66098 3.1026 6.76306 3.37969 6.76306C3.65677 6.76306 3.93386 6.66098 4.15261 6.44223C4.57552 6.01932 4.57552 5.31931 4.15261 4.8964L3.77344 4.51719H11.1818C13.0484 4.51719 14.5797 6.0339 14.5797 7.91515C14.5797 9.7964 13.063 11.3131 11.1818 11.3131H4.00677C3.40885 11.3131 2.91302 11.8089 2.91302 12.4068C2.91302 13.0047 3.40885 13.5006 4.00677 13.5006H11.1818C14.2589 13.5006 16.7672 10.9922 16.7672 7.91515C16.7672 4.83806 14.2589 2.34427 11.1818 2.34427Z" fill="white" fill-opacity="0.5"/>
</svg>
