<svg width="34" height="34" viewBox="0 0 34 34" fill="none" xmlns="http://www.w3.org/2000/svg">
<g clip-path="url(#clip0_144_882)">
<mask id="mask0_144_882" style="mask-type:luminance" maskUnits="userSpaceOnUse" x="0" y="0" width="34" height="34">
<path d="M34 0H0V34H34V0Z" fill="white"/>
</mask>
<g mask="url(#mask0_144_882)">
<path d="M25.5 23.7293C25.2734 23.7293 25.0609 23.6584 24.8625 23.5168C24.395 23.1626 24.2959 22.4968 24.65 22.0293C26.8742 19.0684 26.8742 14.9318 24.65 11.9709C24.2959 11.5034 24.395 10.8376 24.8625 10.4834C25.33 10.1292 25.9959 10.2284 26.35 10.6959C29.1267 14.4076 29.1267 19.5926 26.35 23.3043C26.1375 23.5876 25.8259 23.7293 25.5 23.7293Z" fill="white"/>
<path d="M28.0927 27.2711C27.866 27.2711 27.6535 27.2003 27.4552 27.0586C26.9877 26.7044 26.8885 26.0386 27.2427 25.5711C31.0252 20.5278 31.0252 13.4727 27.2427 8.42939C26.8885 7.96189 26.9877 7.29606 27.4552 6.94189C27.9227 6.58772 28.5885 6.68689 28.9427 7.15439C33.2918 12.9486 33.2918 21.0519 28.9427 26.8461C28.7443 27.1294 28.4185 27.2711 28.0927 27.2711Z" fill="white"/>
<path d="M19.8617 5.35445C18.275 4.47611 16.2492 4.70278 14.1809 5.99195L10.0442 8.58445C9.76087 8.75445 9.43504 8.85361 9.10921 8.85361H7.79171H7.08337C3.65504 8.85361 1.77087 10.7378 1.77087 14.1661V19.8328C1.77087 23.2611 3.65504 25.1453 7.08337 25.1453H7.79171H9.10921C9.43504 25.1453 9.76087 25.2444 10.0442 25.4144L14.1809 28.0069C15.4275 28.7861 16.6459 29.1686 17.7792 29.1686C18.5159 29.1686 19.2242 28.9986 19.8617 28.6444C21.4342 27.7661 22.3125 25.9386 22.3125 23.5019V10.4969C22.3125 8.06028 21.4342 6.23278 19.8617 5.35445Z" fill="white"/>
</g>
</g>
<defs>
<clipPath id="clip0_144_882">
<rect width="34" height="34" fill="white"/>
</clipPath>
</defs>
</svg>
