<svg width="34" height="34" viewBox="0 0 34 34" fill="none" xmlns="http://www.w3.org/2000/svg">
<mask id="mask0_144_866" style="mask-type:luminance" maskUnits="userSpaceOnUse" x="0" y="0" width="34" height="34">
<path d="M34 0H0V34H34V0Z" fill="white"/>
</mask>
<g mask="url(#mask0_144_866)">
<path d="M31.1668 25.9662C31.1668 26.4762 31.0535 27.0003 30.8126 27.5103C30.5718 28.0203 30.2601 28.502 29.8493 28.9553C29.1551 29.7203 28.3901 30.2728 27.526 30.627C26.676 30.9812 25.741 31.1653 24.7493 31.1653C23.3043 31.1653 21.7601 30.8253 20.131 30.1312C18.5018 29.437 16.8585 28.502 15.2435 27.3262C14.4218 26.717 13.6142 26.0937 12.8351 25.4137L17.4535 20.7953C17.4676 20.7953 17.4676 20.7953 17.4818 20.8095C18.2185 21.4328 18.8276 21.8578 19.3093 22.1128C19.3801 22.1412 19.4651 22.1837 19.5643 22.2262C19.6776 22.2687 19.791 22.2828 19.9185 22.2828C20.1593 22.2828 20.3435 22.1978 20.4993 22.042L21.576 20.9795C21.9301 20.6253 22.2701 20.3562 22.596 20.1862C22.9218 19.9878 23.2476 19.8887 23.6018 19.8887C23.871 19.8887 24.1543 19.9453 24.466 20.0728C24.7776 20.2003 25.1035 20.3845 25.4576 20.6253L30.161 23.9545C30.5293 24.2095 30.7843 24.507 30.9401 24.8612C31.0818 25.2153 31.1668 25.5695 31.1668 25.9662Z" fill="white"/>
<path opacity="0.4" d="M15.2434 18.7568L10.625 23.3752C10.6109 23.3752 10.6109 23.3752 10.5967 23.361C9.13754 21.8877 7.82004 20.3435 6.63004 18.7285C5.48254 17.1418 4.56171 15.541 3.88171 13.9685C3.86754 13.9402 3.86754 13.926 3.85337 13.8977C3.17337 12.2827 2.83337 10.7385 2.83337 9.26516C2.83337 8.30183 3.00337 7.381 3.34337 6.531C3.62671 5.8085 4.05171 5.1285 4.63254 4.51933C4.73171 4.406 4.84504 4.2785 4.97254 4.16516C5.19921 3.9385 5.42587 3.74016 5.66671 3.58433C5.68087 3.58433 5.68087 3.58433 5.68087 3.58433C6.38921 3.07433 7.14004 2.8335 7.93337 2.8335C8.33004 2.8335 8.72671 2.9185 9.08087 3.0885C9.42087 3.24433 9.71837 3.471 9.95921 3.79683C9.98754 3.82516 10.0017 3.8535 10.03 3.88183L13.3167 8.51433C13.5717 8.8685 13.7559 9.19433 13.8834 9.506C14.0109 9.8035 14.0817 10.101 14.0817 10.3702C14.0817 10.7102 13.9825 11.0502 13.7842 11.376C13.6 11.7018 13.3309 12.0418 12.9909 12.3818L11.9142 13.501C11.7584 13.6568 11.6875 13.841 11.6875 14.0677C11.6875 14.181 11.7017 14.2802 11.73 14.3935C11.7725 14.5068 11.815 14.5918 11.8434 14.6768C12.0984 15.1443 12.5375 15.7535 13.1609 16.4902C13.7984 17.2268 14.4784 17.9777 15.215 18.7285C15.2292 18.7427 15.2292 18.7427 15.2434 18.7568Z" fill="white"/>
<path d="M30.8408 3.16055C30.4158 2.73555 29.7216 2.73555 29.2966 3.16055L3.15908 29.3123C2.73408 29.7373 2.73408 30.4314 3.15908 30.8564C3.37158 31.0548 3.64075 31.1681 3.92408 31.1681C4.20742 31.1681 4.47658 31.0548 4.68908 30.8423L30.8408 4.69055C31.2799 4.26555 31.2799 3.58555 30.8408 3.16055Z" fill="white"/>
</g>
</svg>
