<svg width="35" height="35" viewBox="0 0 35 35" fill="none" xmlns="http://www.w3.org/2000/svg">
<g clip-path="url(#clip0_4_466)">
<mask id="mask0_4_466" style="mask-type:luminance" maskUnits="userSpaceOnUse" x="0" y="0" width="35" height="35">
<path d="M35 0H0V35H35V0Z" fill="white"/>
</mask>
<g mask="url(#mask0_4_466)">
<path opacity="0.4" d="M9.85862 32.0834H25.142C29.167 32.0834 30.7712 29.6188 30.9607 26.6147L31.7191 14.5688C31.9232 11.4188 29.4149 8.75008 26.2503 8.75008C25.3607 8.75008 24.5441 8.23967 24.1357 7.45217L23.0857 5.33758C22.4149 4.0105 20.6649 2.91675 19.1774 2.91675H15.8378C14.3357 2.91675 12.5857 4.0105 11.9149 5.33758L10.8649 7.45217C10.4565 8.23967 9.63987 8.75008 8.75029 8.75008C5.5857 8.75008 3.07737 11.4188 3.28154 14.5688L4.03987 26.6147C4.21487 29.6188 5.83362 32.0834 9.85862 32.0834Z" fill="white"/>
<path d="M19.6875 12.7605H15.3125C14.7146 12.7605 14.2188 12.2647 14.2188 11.6667C14.2188 11.0688 14.7146 10.573 15.3125 10.573H19.6875C20.2854 10.573 20.7812 11.0688 20.7812 11.6667C20.7812 12.2647 20.2854 12.7605 19.6875 12.7605Z" fill="white"/>
<path d="M17.5002 26.4399C20.2225 26.4399 22.4293 24.233 22.4293 21.5107C22.4293 18.7884 20.2225 16.5815 17.5002 16.5815C14.7779 16.5815 12.571 18.7884 12.571 21.5107C12.571 24.233 14.7779 26.4399 17.5002 26.4399Z" fill="white"/>
</g>
</g>
<defs>
<clipPath id="clip0_4_466">
<rect width="35" height="35" fill="white"/>
</clipPath>
</defs>
</svg>
