<svg width="36" height="36" viewBox="0 0 36 36" fill="none" xmlns="http://www.w3.org/2000/svg">
<g clip-path="url(#clip0_4_231)">
<mask id="mask0_4_231" style="mask-type:luminance" maskUnits="userSpaceOnUse" x="0" y="0" width="36" height="36">
<path d="M36 0H0V36H36V0Z" fill="white"/>
</mask>
<g mask="url(#mask0_4_231)">
<path d="M32.6549 3.34482C32.2049 2.89482 31.4699 2.89482 31.0199 3.34482L3.34482 31.0349C2.89482 31.4849 2.89482 32.2199 3.34482 32.6699C3.56982 32.8799 3.85482 32.9999 4.15482 32.9999C4.45482 32.9999 4.73982 32.8799 4.96482 32.6549L32.6549 4.96482C33.1199 4.51482 33.1199 3.79482 32.6549 3.34482Z" fill="white"/>
<path opacity="0.4" d="M32.6253 14.985L31.8453 27.375C31.6503 30.465 30.0003 33 25.8603 33H10.1403C9.25534 33 8.49032 32.88 7.83032 32.67L30.3753 10.125C31.8453 11.22 32.7603 13.005 32.6253 14.985Z" fill="white"/>
<path opacity="0.4" d="M27.0003 9L5.22025 30.78C4.54525 29.835 4.23025 28.65 4.15525 27.375L3.37525 14.985C3.16525 11.745 5.74525 9 9.00025 9C9.91525 9 10.7553 8.475 11.1753 7.665L12.2553 5.49C12.9453 4.125 14.7453 3 16.2903 3H19.7253C21.2553 3 23.0553 4.125 23.7453 5.49L24.8253 7.665C25.2453 8.475 26.0853 9 27.0003 9Z" fill="white"/>
<path d="M14.25 16.125H9.75C9.135 16.125 8.625 15.615 8.625 15C8.625 14.385 9.135 13.875 9.75 13.875H14.25C14.865 13.875 15.375 14.385 15.375 15C15.375 15.615 14.865 16.125 14.25 16.125Z" fill="white"/>
<path d="M18.8549 17.1448L13.0198 22.9798C12.9748 22.7098 12.9448 22.4098 12.9448 22.1248C12.9448 19.3348 15.2099 17.0698 17.9999 17.0698C18.2849 17.0698 18.5849 17.0998 18.8549 17.1448Z" fill="white"/>
<path d="M23.07 22.125C23.07 24.915 20.79 27.18 18 27.18C16.695 27.18 15.51 26.685 14.625 25.875L21.75 18.75C22.575 19.635 23.07 20.82 23.07 22.125Z" fill="white"/>
</g>
</g>
<defs>
<clipPath id="clip0_4_231">
<rect width="36" height="36" fill="white"/>
</clipPath>
</defs>
</svg>
