<svg width="34" height="34" viewBox="0 0 34 34" fill="none" xmlns="http://www.w3.org/2000/svg">
<g clip-path="url(#clip0_124_756)">
<mask id="mask0_124_756" style="mask-type:luminance" maskUnits="userSpaceOnUse" x="0" y="0" width="34" height="34">
<path d="M34 0H0V34H34V0Z" fill="white"/>
</mask>
<g mask="url(#mask0_124_756)">
<path opacity="0.4" d="M30.1325 8.84017V23.0068C30.1325 23.6302 30.0333 24.2393 29.8633 24.8202C29.4808 24.5368 29.1833 24.1543 29.07 23.6868L28.6308 22.1002C28.3617 21.3918 27.7242 20.9102 26.9308 20.9102C26.1517 20.9102 25.4717 21.3777 25.2025 22.086L25.1175 22.3268L24.7492 23.6727C24.5508 24.381 24.0267 24.9052 23.3042 25.1177L21.9442 25.4718C21.0942 25.7127 20.5558 26.421 20.5558 27.2852C20.5558 28.1493 21.1083 28.8577 21.9158 29.0844L23.3042 29.4668C23.6017 29.5518 23.8708 29.7077 24.0975 29.906C23.5308 30.0194 22.95 30.0902 22.355 30.0902H9.9025C5.59583 30.0902 2.125 26.9168 2.125 23.0068V8.84017C2.125 4.94434 5.62417 1.75684 9.9025 1.75684H22.355C26.6333 1.75684 30.1325 4.94434 30.1325 8.84017Z" fill="white"/>
<path d="M23.9133 12.991V18.8418C23.9133 19.4085 23.2759 19.7485 22.8084 19.4368L19.6634 17.3402V18.0485C19.6634 20.0035 18.0767 21.5902 16.1217 21.5902H11.8717C9.91668 21.5902 8.33002 20.0035 8.33002 18.0485V13.7985C8.33002 11.8435 9.91668 10.2568 11.8717 10.2568H16.1217C18.0767 10.2568 19.6634 11.8435 19.6634 13.7985V14.5068L22.8084 12.396C23.2759 12.0843 23.9133 12.4243 23.9133 12.991Z" fill="white"/>
<path d="M31.875 27.3133C31.875 27.4125 31.8183 27.6392 31.5491 27.7242L30.1608 28.1067C28.9566 28.4325 28.05 29.3392 27.7241 30.5433L27.3558 31.9033C27.2708 32.215 27.03 32.2433 26.9166 32.2433C26.8033 32.2433 26.5625 32.215 26.4775 31.9033L26.1091 30.5292C25.7833 29.3392 24.8625 28.4325 23.6725 28.1067L22.2983 27.7383C22.0008 27.6533 21.9725 27.3983 21.9725 27.2992C21.9725 27.1858 22.0008 26.9308 22.2983 26.8458L23.6866 26.4775C24.8766 26.1375 25.7833 25.2308 26.1091 24.0408L26.5058 22.5958C26.605 22.355 26.8316 22.3125 26.9166 22.3125C27.0016 22.3125 27.2425 22.3408 27.3275 22.5675L27.7241 24.0267C28.05 25.2167 28.9708 26.1233 30.1608 26.4633L31.5775 26.86C31.8608 26.9733 31.875 27.2283 31.875 27.3133Z" fill="white"/>
</g>
</g>
<defs>
<clipPath id="clip0_124_756">
<rect width="34" height="34" fill="white"/>
</clipPath>
</defs>
</svg>
