<svg width="28" height="28" viewBox="0 0 28 28" fill="none" xmlns="http://www.w3.org/2000/svg">
<g clip-path="url(#clip0_22_251)">
<mask id="mask0_22_251" style="mask-type:luminance" maskUnits="userSpaceOnUse" x="0" y="0" width="28" height="28">
<path d="M28 0H0V28H28V0Z" fill="white"/>
</mask>
<g mask="url(#mask0_22_251)">
<path opacity="0.4" d="M21.5481 19.6352L22.0031 23.3218C22.1197 24.2902 21.0814 24.9668 20.2531 24.4652L15.3647 21.5602C14.8281 21.5602 14.3032 21.5252 13.7898 21.4552C14.6532 20.4402 15.1664 19.1568 15.1664 17.7685C15.1664 14.4552 12.2964 11.7718 8.74979 11.7718C7.39646 11.7718 6.14812 12.1568 5.10979 12.8335C5.07479 12.5418 5.06311 12.2502 5.06311 11.9468C5.06311 6.63848 9.67145 2.3335 15.3647 2.3335C21.0581 2.3335 25.6664 6.63848 25.6664 11.9468C25.6664 15.0968 24.0447 17.8852 21.5481 19.6352Z" fill="white"/>
<path d="M15.1666 17.7682C15.1666 19.1565 14.6533 20.4398 13.79 21.4548C12.635 22.8548 10.8033 23.7532 8.74998 23.7532L5.70498 25.5615C5.19165 25.8765 4.53831 25.4448 4.60831 24.8498L4.89998 22.5515C3.33665 21.4665 2.33331 19.7282 2.33331 17.7682C2.33331 15.7148 3.42998 13.9065 5.10998 12.8332C6.14831 12.1565 7.39665 11.7715 8.74998 11.7715C12.2966 11.7715 15.1666 14.4548 15.1666 17.7682Z" fill="white"/>
</g>
</g>
<defs>
<clipPath id="clip0_22_251">
<rect width="28" height="28" fill="white"/>
</clipPath>
</defs>
</svg>
