<svg width="28" height="28" viewBox="0 0 28 28" fill="none" xmlns="http://www.w3.org/2000/svg">
<g clip-path="url(#clip0_30_1398)">
<mask id="mask0_30_1398" style="mask-type:luminance" maskUnits="userSpaceOnUse" x="0" y="0" width="28" height="28">
<path d="M28 0H0V28H28V0Z" fill="white"/>
</mask>
<g mask="url(#mask0_30_1398)">
<path opacity="0.4" d="M21.5481 19.6347L22.0031 23.3213C22.1197 24.2897 21.0814 24.9663 20.2531 24.4647L15.3647 21.5597C14.8281 21.5597 14.3032 21.5247 13.7898 21.4547C14.6532 20.4397 15.1664 19.1563 15.1664 17.768C15.1664 14.4547 12.2964 11.7713 8.74979 11.7713C7.39646 11.7713 6.14812 12.1563 5.10979 12.833C5.07479 12.5413 5.06311 12.2497 5.06311 11.9463C5.06311 6.638 9.67145 2.33301 15.3647 2.33301C21.0581 2.33301 25.6664 6.638 25.6664 11.9463C25.6664 15.0963 24.0447 17.8847 21.5481 19.6347Z" fill="#FF62BE"/>
<path d="M15.1666 17.7682C15.1666 19.1565 14.6533 20.4398 13.79 21.4548C12.635 22.8548 10.8033 23.7532 8.74998 23.7532L5.70498 25.5615C5.19165 25.8765 4.53831 25.4448 4.60831 24.8498L4.89998 22.5515C3.33665 21.4665 2.33331 19.7282 2.33331 17.7682C2.33331 15.7148 3.42998 13.9065 5.10998 12.8332C6.14831 12.1565 7.39665 11.7715 8.74998 11.7715C12.2966 11.7715 15.1666 14.4548 15.1666 17.7682Z" fill="#FF62BE"/>
</g>
</g>
<defs>
<clipPath id="clip0_30_1398">
<rect width="28" height="28" fill="white"/>
</clipPath>
</defs>
</svg>
