<svg width="36" height="36" viewBox="0 0 36 36" fill="none" xmlns="http://www.w3.org/2000/svg">
<g clip-path="url(#clip0_4_217)">
<mask id="mask0_4_217" style="mask-type:luminance" maskUnits="userSpaceOnUse" x="0" y="0" width="36" height="36">
<path d="M36 0H0V36H36V0Z" fill="white"/>
</mask>
<g mask="url(#mask0_4_217)">
<path opacity="0.4" d="M18 33C26.2842 33 33 26.2842 33 18C33 9.71572 26.2842 3 18 3C9.71572 3 3 9.71572 3 18C3 26.2842 9.71572 33 18 33Z" fill="white"/>
<path d="M23.5652 23.8947C23.3702 23.8947 23.1752 23.8497 22.9952 23.7297L18.3452 20.9547C17.1902 20.2647 16.3352 18.7497 16.3352 17.4147V11.2646C16.3352 10.6496 16.8452 10.1396 17.4602 10.1396C18.0752 10.1396 18.5852 10.6496 18.5852 11.2646V17.4147C18.5852 17.9547 19.0352 18.7497 19.5002 19.0197L24.1502 21.7947C24.6902 22.1097 24.8552 22.7997 24.5402 23.3397C24.3152 23.6997 23.9402 23.8947 23.5652 23.8947Z" fill="white"/>
</g>
</g>
<defs>
<clipPath id="clip0_4_217">
<rect width="36" height="36" fill="white"/>
</clipPath>
</defs>
</svg>
