<svg width="29" height="29" viewBox="0 0 29 29" fill="none" xmlns="http://www.w3.org/2000/svg">
<g clip-path="url(#clip0_6_685)">
<mask id="mask0_6_685" style="mask-type:luminance" maskUnits="userSpaceOnUse" x="0" y="0" width="29" height="29">
<path d="M29 0H0V29H29V0Z" fill="white"/>
</mask>
<g mask="url(#mask0_6_685)">
<path opacity="0.4" d="M14.5 26.5834C21.1734 26.5834 26.5834 21.1735 26.5834 14.5001C26.5834 7.82664 21.1734 2.41675 14.5 2.41675C7.82658 2.41675 2.41669 7.82664 2.41669 14.5001C2.41669 21.1735 7.82658 26.5834 14.5 26.5834Z" fill="white"/>
<path d="M15.7808 14.4994L18.5599 11.7201C18.9103 11.3697 18.9103 10.7897 18.5599 10.4393C18.2095 10.0889 17.6295 10.0889 17.2791 10.4393L14.4999 13.2185L11.7207 10.4393C11.3703 10.0889 10.7903 10.0889 10.4399 10.4393C10.0895 10.7897 10.0895 11.3697 10.4399 11.7201L13.2191 14.4994L10.4399 17.2785C10.0895 17.6289 10.0895 18.2089 10.4399 18.5594C10.6211 18.7406 10.8507 18.8252 11.0803 18.8252C11.3099 18.8252 11.5395 18.7406 11.7207 18.5594L14.4999 15.7802L17.2791 18.5594C17.4603 18.7406 17.6899 18.8252 17.9195 18.8252C18.1491 18.8252 18.3787 18.7406 18.5599 18.5594C18.9103 18.2089 18.9103 17.6289 18.5599 17.2785L15.7808 14.4994Z" fill="white"/>
</g>
</g>
<defs>
<clipPath id="clip0_6_685">
<rect width="29" height="29" fill="white"/>
</clipPath>
</defs>
</svg>
