<svg width="27" height="27" viewBox="0 0 27 27" fill="none" xmlns="http://www.w3.org/2000/svg">
<g clip-path="url(#clip0_42_590)">
<mask id="mask0_42_590" style="mask-type:luminance" maskUnits="userSpaceOnUse" x="0" y="0" width="27" height="27">
<path d="M0 0H27V27H0V0Z" fill="white"/>
</mask>
<g mask="url(#mask0_42_590)">
<mask id="mask1_42_590" style="mask-type:luminance" maskUnits="userSpaceOnUse" x="0" y="0" width="27" height="27">
<path d="M0 0H27V27H0V0Z" fill="white"/>
</mask>
<g mask="url(#mask1_42_590)">
<path d="M20.9918 8.37134H5.01929L6.52654 21.9591C6.69523 23.5114 8.02255 24.6812 9.5973 24.6812H17.2685C18.8433 24.6812 20.1706 23.5114 20.3393 21.9591L21.8466 8.37134H20.9918ZM14.5578 13.433C14.5578 12.8144 15.064 12.3082 15.6826 12.3082C16.3013 12.3082 16.8074 12.8144 16.8074 13.433V20.1819C16.8074 20.8006 16.3013 21.3068 15.6826 21.3068C15.0639 21.3068 14.5578 20.8006 14.5578 20.1819V13.433ZM10.0585 13.433C10.0585 12.8144 10.5647 12.3082 11.1833 12.3082C11.802 12.3082 12.3082 12.8144 12.3082 13.433V20.1819C12.3082 20.8006 11.802 21.3068 11.1833 21.3068C10.5647 21.3068 10.0585 20.8006 10.0585 20.1819V13.433Z" fill="white"/>
<path d="M22.3157 4.41654L14.4424 4.499L14.4306 3.37423C14.4241 2.75334 13.916 2.25476 13.2941 2.26129C12.6721 2.26777 12.1746 2.77694 12.1811 3.39778L12.1929 4.5226L4.31955 4.605C3.69757 4.61148 3.20007 5.1207 3.20661 5.74154C3.21309 6.36243 3.72112 6.86101 4.34309 6.85448L22.3392 6.66602C22.9612 6.65954 23.4587 6.15037 23.4522 5.52954C23.4457 4.90864 22.9377 4.41001 22.3157 4.41654Z" fill="white"/>
</g>
</g>
</g>
<defs>
<clipPath id="clip0_42_590">
<rect width="27" height="27" fill="white"/>
</clipPath>
</defs>
</svg>
