<svg width="22" height="22" viewBox="0 0 22 22" fill="none" xmlns="http://www.w3.org/2000/svg">
<g clip-path="url(#clip0_30_913)">
<mask id="mask0_30_913" style="mask-type:luminance" maskUnits="userSpaceOnUse" x="0" y="0" width="22" height="22">
<path d="M22 0H0V22H22V0Z" fill="white"/>
</mask>
<g mask="url(#mask0_30_913)">
<path d="M19.3141 4.79433C17.8382 4.64766 16.3624 4.53766 14.8774 4.45516V4.446L14.6757 3.25433C14.5382 2.411 14.3366 1.146 12.1916 1.146H9.78991C7.65409 1.146 7.45242 2.356 7.30575 3.24516L7.11325 4.4185C6.26075 4.4735 5.40825 4.5285 4.55575 4.611L2.68575 4.79433C2.30075 4.831 2.02575 5.17016 2.06242 5.546C2.09909 5.92183 2.42909 6.19683 2.81409 6.16016L4.68409 5.97683C9.48741 5.50016 14.3274 5.6835 19.1857 6.16933C19.2132 6.16933 19.2316 6.16933 19.2591 6.16933C19.6074 6.16933 19.9099 5.9035 19.9466 5.546C19.9741 5.17016 19.6991 4.831 19.3141 4.79433Z" fill="white"/>
<path d="M17.6275 7.46199C17.4075 7.23283 17.105 7.10449 16.7933 7.10449H5.20667C4.895 7.10449 4.58334 7.23283 4.3725 7.46199C4.16167 7.69116 4.0425 8.00283 4.06084 8.32366L4.62917 17.7287C4.73 19.122 4.85834 20.8637 8.0575 20.8637H13.9425C17.1417 20.8637 17.27 19.1312 17.3708 17.7287L17.9392 8.33283C17.9575 8.00283 17.8383 7.69116 17.6275 7.46199ZM12.5217 16.2712H9.46918C9.09334 16.2712 8.78167 15.9595 8.78167 15.5837C8.78167 15.2078 9.09334 14.8962 9.46918 14.8962H12.5217C12.8975 14.8962 13.2092 15.2078 13.2092 15.5837C13.2092 15.9595 12.8975 16.2712 12.5217 16.2712ZM13.2917 12.6045H8.70834C8.33251 12.6045 8.02084 12.2928 8.02084 11.917C8.02084 11.5412 8.33251 11.2295 8.70834 11.2295H13.2917C13.6675 11.2295 13.9792 11.5412 13.9792 11.917C13.9792 12.2928 13.6675 12.6045 13.2917 12.6045Z" fill="white"/>
</g>
</g>
<defs>
<clipPath id="clip0_30_913">
<rect width="22" height="22" fill="white"/>
</clipPath>
</defs>
</svg>
