<svg width="99" height="99" viewBox="0 0 99 99" fill="none" xmlns="http://www.w3.org/2000/svg">
<path d="M24.1313 14.4375C24.6477 13.8221 24.9044 13.0299 24.8472 12.2286C24.7901 11.4273 24.4234 10.6797 23.8249 10.1438C23.2264 9.60801 22.4429 9.326 21.6401 9.35747C20.8374 9.38894 20.0784 9.73142 19.5237 10.3125C14.456 15.9648 11.0972 22.9397 9.83815 30.426C9.72169 31.2265 9.92337 32.0407 10.4 32.6943C10.8766 33.3479 11.5903 33.7888 12.3881 33.9226C13.1858 34.0563 14.0043 33.8723 14.668 33.41C15.3318 32.9476 15.788 32.2437 15.939 31.449C17.0038 25.1171 19.8448 19.2178 24.1313 14.4375ZM79.4764 10.3125C79.2063 10.007 78.8785 9.75785 78.5118 9.57948C78.1451 9.40111 77.7467 9.29699 77.3396 9.27313C76.9325 9.24926 76.5247 9.30611 76.1397 9.4404C75.7547 9.5747 75.3999 9.78379 75.096 10.0557C74.7921 10.3275 74.5449 10.6568 74.3686 11.0245C74.1924 11.3923 74.0906 11.7912 74.0691 12.1985C74.0476 12.6057 74.1068 13.0131 74.2433 13.3974C74.3799 13.7816 74.591 14.1351 74.8647 14.4375C79.1525 19.2175 81.9948 25.1168 83.061 31.449C83.1967 32.2585 83.6484 32.9811 84.3168 33.4576C84.6477 33.6936 85.0219 33.862 85.418 33.9534C85.814 34.0447 86.2242 34.0571 86.625 33.99C87.0259 33.9228 87.4096 33.7773 87.7542 33.5619C88.0989 33.3464 88.3977 33.0652 88.6337 32.7342C88.8696 32.4033 89.0381 32.0291 89.1294 31.6331C89.2208 31.237 89.2332 30.8268 89.166 30.426C87.9044 22.9389 84.5469 15.9639 79.4764 10.3125Z" fill="white"/>
<path fill-rule="evenodd" clip-rule="evenodd" d="M49.5001 9.28125C42.1155 9.28125 35.0333 12.2148 29.8116 17.4365C24.5899 22.6582 21.6563 29.7404 21.6563 37.125V40.2188C21.669 48.6304 18.5535 56.7463 12.9155 62.9888C12.5769 63.3644 12.3355 63.8172 12.2125 64.3077C12.0895 64.7982 12.0887 65.3114 12.21 65.8023C12.3313 66.2932 12.5711 66.7469 12.9084 67.1237C13.2456 67.5005 13.6701 67.7888 14.1447 67.9635C20.5137 70.3148 27.1797 72.0472 34.0726 73.0909C33.9174 75.2117 34.2011 77.3418 34.9061 79.348C35.6111 81.3542 36.7222 83.1936 38.1699 84.7512C39.6177 86.3087 41.371 87.5511 43.3205 88.4006C45.2699 89.2501 47.3736 89.6886 49.5001 89.6886C51.6266 89.6886 53.7302 89.2501 55.6797 88.4006C57.6291 87.5511 59.3825 86.3087 60.8302 84.7512C62.278 83.1936 63.3891 81.3542 64.094 79.348C64.799 77.3418 65.0828 75.2117 64.9276 73.0909C71.7256 72.0603 78.4012 70.3409 84.8513 67.9594C85.3252 67.7845 85.7489 67.4962 86.0857 67.1197C86.4224 66.7433 86.6619 66.2901 86.7831 65.7998C86.9044 65.3095 86.9038 64.797 86.7813 64.3069C86.6588 63.8169 86.4183 63.3644 86.0806 62.9888C80.444 56.7457 77.33 48.6299 77.3438 40.2188V37.125C77.3438 29.7404 74.4103 22.6582 69.1886 17.4365C63.9669 12.2148 56.8847 9.28125 49.5001 9.28125ZM40.2188 74.25C40.2188 74.1097 40.2188 73.9736 40.2271 73.8375C46.3966 74.3934 52.6036 74.3934 58.7731 73.8375L58.7813 74.25C58.7813 76.7115 57.8035 79.0723 56.0629 80.8128C54.3223 82.5534 51.9616 83.5312 49.5001 83.5312C47.0385 83.5312 44.6778 82.5534 42.9372 80.8128C41.1967 79.0723 40.2188 76.7115 40.2188 74.25Z" fill="white"/>
</svg>
