<svg width="17" height="17" viewBox="0 0 17 17" fill="none" xmlns="http://www.w3.org/2000/svg">
<g clip-path="url(#clip0_30_807)">
<mask id="mask0_30_807" style="mask-type:luminance" maskUnits="userSpaceOnUse" x="0" y="0" width="17" height="17">
<path d="M17 0H0V17H17V0Z" fill="white"/>
</mask>
<g mask="url(#mask0_30_807)">
<path d="M14.875 15.5835H2.125C1.83458 15.5835 1.59375 15.3427 1.59375 15.0522C1.59375 14.7618 1.83458 14.521 2.125 14.521H14.875C15.1654 14.521 15.4062 14.7618 15.4062 15.0522C15.4062 15.3427 15.1654 15.5835 14.875 15.5835Z" fill="white"/>
<path d="M13.4726 2.46485C12.0984 1.09068 10.7526 1.05526 9.34298 2.46485L8.4859 3.32193C8.41506 3.39276 8.38673 3.5061 8.41506 3.60526C8.9534 5.48235 10.4551 6.98401 12.3321 7.52237C12.3605 7.52945 12.3888 7.53654 12.4171 7.53654C12.4951 7.53654 12.5659 7.5082 12.6226 7.45154L13.4726 6.59443C14.1738 5.90026 14.5138 5.22735 14.5138 4.54735C14.5209 3.8461 14.1809 3.1661 13.4726 2.46485Z" fill="white"/>
<path d="M11.0572 8.16759C10.8518 8.06843 10.6534 7.96926 10.4622 7.85593C10.3063 7.76385 10.1576 7.66468 10.0088 7.55843C9.88842 7.48051 9.74675 7.36718 9.61217 7.25384C9.598 7.24676 9.54842 7.20426 9.49175 7.1476C9.258 6.94925 8.99592 6.69425 8.76217 6.41091C8.74092 6.39675 8.7055 6.34716 8.65592 6.28341C8.58508 6.19841 8.46467 6.05675 8.35842 5.89383C8.27342 5.78758 8.17425 5.63175 8.08217 5.47591C7.96883 5.28466 7.86967 5.09341 7.7705 4.89508C7.75548 4.86293 7.74096 4.83093 7.72687 4.79913C7.62232 4.56303 7.31448 4.494 7.13187 4.67658L3.07423 8.73426C2.98215 8.82634 2.89715 9.00343 2.8759 9.12385L2.4934 11.8368C2.42256 12.3184 2.55715 12.7718 2.85465 13.0763C3.10965 13.3243 3.46381 13.4588 3.84631 13.4588C3.93131 13.4588 4.01631 13.4518 4.10131 13.4376L6.82131 13.0551C6.94881 13.0338 7.12592 12.9488 7.21092 12.8568L11.2635 8.80417C11.4473 8.62029 11.378 8.3048 11.1388 8.20273C11.1119 8.19125 11.0847 8.17949 11.0572 8.16759Z" fill="white"/>
</g>
</g>
<defs>
<clipPath id="clip0_30_807">
<rect width="17" height="17" fill="white"/>
</clipPath>
</defs>
</svg>
