<svg width="22" height="34" viewBox="0 0 22 34" fill="none" xmlns="http://www.w3.org/2000/svg">
<path d="M18.7826 18.6687C23.0725 14.4058 23.0725 7.46467 18.7826 3.20181C16.7034 1.13583 13.9376 0 10.9976 0C8.05773 0 5.29185 1.13583 3.21745 3.20181C-1.07248 7.46467 -1.07248 14.4058 3.21745 18.6687C5.06607 20.5056 7.4086 21.5433 9.82168 21.8004V28.2695H7.15929C6.51016 28.2695 5.98332 28.793 5.98332 29.438C5.98332 30.083 6.51016 30.6065 7.15929 30.6065H9.82168V32.8315C9.82168 33.4765 10.3485 34 10.9976 34C11.6468 34 12.1736 33.4765 12.1736 32.8315V30.6065H14.836C15.4851 30.6065 16.012 30.083 16.012 29.438C16.012 28.793 15.4851 28.2695 14.836 28.2695H12.1736V21.8004C14.5867 21.5433 16.9339 20.5056 18.7826 18.6687ZM4.87791 4.85648C6.51486 3.22986 8.68805 2.33709 10.9976 2.33709C13.3072 2.33709 15.4804 3.22986 17.1174 4.85648C20.4901 8.20786 20.4901 13.6673 17.1174 17.0187C13.7447 20.3701 8.25059 20.3701 4.87791 17.0187C1.50524 13.6673 1.50524 8.20786 4.87791 4.85648Z" fill="white" fill-opacity="0.5"/>
</svg>
