<svg width="22" height="22" viewBox="0 0 22 22" fill="none" xmlns="http://www.w3.org/2000/svg">
<g clip-path="url(#clip0_4_935)">
<mask id="mask0_4_935" style="mask-type:luminance" maskUnits="userSpaceOnUse" x="0" y="0" width="22" height="22">
<path d="M22 0H0V22H22V0Z" fill="white"/>
</mask>
<g mask="url(#mask0_4_935)">
<path opacity="0.4" d="M18.865 3.68491V5.47242C18.2417 5.01409 17.5267 4.67492 16.7475 4.50075C16.3442 4.39992 15.9133 4.35409 15.4733 4.35409C12.3108 4.35409 9.7441 6.92075 9.7441 10.0833C9.7441 11.1283 10.0284 12.1549 10.5692 13.0349C11.0275 13.8049 11.6691 14.4466 12.3658 14.8774C12.6041 15.0333 12.8516 15.1708 13.1083 15.2899V17.4808C13.1083 18.0399 12.7417 18.7824 12.2834 19.0574L10.9999 19.8916C9.80826 20.6341 8.16744 19.7999 8.16744 18.3149V13.4108C8.16744 12.7599 7.80078 11.9258 7.43411 11.4674L3.95998 7.76409C3.50164 7.29659 3.13495 6.46243 3.13495 5.91243V3.77659C3.13495 2.66742 3.95994 1.83325 4.95911 1.83325H17.0409C18.04 1.83325 18.865 2.66741 18.865 3.68491Z" fill="white"/>
<path d="M16.4266 5.839C16.1241 5.76567 15.8032 5.729 15.4732 5.729C13.0716 5.729 11.1191 7.6815 11.1191 10.0832C11.1191 10.899 11.3482 11.669 11.7516 12.329C12.0907 12.8973 12.5582 13.3832 13.1266 13.7315C13.8049 14.1807 14.6116 14.4373 15.4732 14.4373C17.0682 14.4373 18.4524 13.5848 19.2041 12.329C19.6074 11.669 19.8274 10.899 19.8274 10.0832C19.8274 8.0115 18.3791 6.26984 16.4266 5.839ZM17.2607 9.689L15.0332 11.9165C14.9507 11.999 14.7766 12.0815 14.6574 12.0998L13.8049 12.219C13.4932 12.2648 13.2824 12.0448 13.3282 11.7423L13.4474 10.8898C13.4657 10.7707 13.5482 10.6057 13.6307 10.514L15.5374 8.60735L15.8582 8.28651C16.2432 7.90151 16.6924 7.71818 17.2516 8.28651C17.8107 8.85485 17.6457 9.304 17.2607 9.689Z" fill="white"/>
</g>
</g>
<defs>
<clipPath id="clip0_4_935">
<rect width="22" height="22" fill="white"/>
</clipPath>
</defs>
</svg>
