<svg width="12" height="12" viewBox="0 0 12 12" fill="none" xmlns="http://www.w3.org/2000/svg">
<path fill-rule="evenodd" clip-rule="evenodd" d="M6.63998 5.73492C6.71021 5.80524 6.74965 5.90055 6.74965 5.99992C6.74965 6.0993 6.71021 6.19461 6.63998 6.26492L2.88998 10.0149C2.8189 10.0812 2.72487 10.1172 2.62772 10.1155C2.53057 10.1138 2.43788 10.0744 2.36917 10.0057C2.30047 9.93703 2.26111 9.84433 2.2594 9.74718C2.25768 9.65003 2.29374 9.55601 2.35998 9.48492L5.84498 5.99992L2.35998 2.51492C2.29374 2.44384 2.25768 2.34981 2.2594 2.25266C2.26111 2.15551 2.30047 2.06282 2.36917 1.99411C2.43788 1.92541 2.53057 1.88605 2.62772 1.88434C2.72487 1.88262 2.8189 1.91868 2.88998 1.98492L6.63998 5.73492Z" fill="black"/>
<path fill-rule="evenodd" clip-rule="evenodd" d="M9.64002 5.73492C9.71024 5.80524 9.74969 5.90055 9.74969 5.99992C9.74969 6.0993 9.71024 6.19461 9.64002 6.26492L5.89002 10.0149C5.85568 10.0518 5.81428 10.0813 5.76828 10.1018C5.72229 10.1223 5.67263 10.1333 5.62228 10.1342C5.57193 10.1351 5.52191 10.1258 5.47522 10.107C5.42852 10.0881 5.38611 10.0601 5.3505 10.0244C5.31489 9.98883 5.28682 9.94642 5.26795 9.89972C5.24909 9.85303 5.23983 9.80301 5.24072 9.75266C5.24161 9.70231 5.25263 9.65265 5.27313 9.60665C5.29362 9.56065 5.32317 9.51925 5.36002 9.48492L8.84502 5.99992L5.36002 2.51492C5.29378 2.44384 5.25771 2.34981 5.25943 2.25266C5.26114 2.15551 5.3005 2.06282 5.36921 1.99411C5.43791 1.92541 5.5306 1.88605 5.62775 1.88434C5.72491 1.88262 5.81893 1.91868 5.89002 1.98492L9.64002 5.73492Z" fill="black"/>
</svg>
