<svg width="5" height="5" viewBox="0 0 5 5" fill="none" xmlns="http://www.w3.org/2000/svg">
<path d="M4.83 1.87686L3.08 0.126875C2.91083 -0.0422917 2.63083 -0.0422917 2.46167 0.126875C2.2925 0.296042 2.2925 0.576041 2.46167 0.745208L3.465 1.74852H0.4375C0.198333 1.74852 0 1.94686 0 2.18602C0 2.42519 0.198333 2.62352 0.4375 2.62352H3.465L2.46167 3.62686C2.2925 3.79602 2.2925 4.07602 2.46167 4.24519C2.54917 4.33269 2.66 4.37352 2.77083 4.37352C2.88167 4.37352 2.9925 4.33269 3.08 4.24519L4.83 2.49519C4.99917 2.32602 4.99917 2.04602 4.83 1.87686Z" fill="white"/>
</svg>
