<svg width="22" height="22" viewBox="0 0 22 22" fill="none" xmlns="http://www.w3.org/2000/svg">
<g clip-path="url(#clip0_144_1043)">
<mask id="mask0_144_1043" style="mask-type:luminance" maskUnits="userSpaceOnUse" x="0" y="0" width="22" height="22">
<path d="M22 0H0V22H22V0Z" fill="white"/>
</mask>
<g mask="url(#mask0_144_1043)">
<path d="M2.36504 17.4254L2.34671 17.4437C2.09921 16.9029 1.94338 16.2887 1.87921 15.6104C1.94338 16.2795 2.11754 16.8845 2.36504 17.4254Z" fill="white"/>
<path d="M8.25009 9.51468C9.45503 9.51468 10.4317 8.53794 10.4317 7.33303C10.4317 6.12813 9.45503 5.15137 8.25009 5.15137C7.04518 5.15137 6.06842 6.12813 6.06842 7.33303C6.06842 8.53794 7.04518 9.51468 8.25009 9.51468Z" fill="white"/>
<path d="M14.8408 1.83301H7.15915C3.82248 1.83301 1.83331 3.82217 1.83331 7.15884V14.8405C1.83331 15.8397 2.00748 16.7105 2.34665 17.4438C3.13498 19.1855 4.82165 20.1663 7.15915 20.1663H14.8408C18.1775 20.1663 20.1666 18.1772 20.1666 14.8405V12.7413V7.15884C20.1666 3.82217 18.1775 1.83301 14.8408 1.83301ZM18.6725 11.458C17.9575 10.8438 16.8025 10.8438 16.0875 11.458L12.2741 14.7305C11.5591 15.3447 10.4041 15.3447 9.68915 14.7305L9.37748 14.4738C8.72665 13.9055 7.69081 13.8505 6.95748 14.3455L3.52915 16.6463C3.32748 16.133 3.20831 15.5372 3.20831 14.8405V7.15884C3.20831 4.57384 4.57415 3.20801 7.15915 3.20801H14.8408C17.4258 3.20801 18.7916 4.57384 18.7916 7.15884V11.5588L18.6725 11.458Z" fill="white"/>
</g>
</g>
<defs>
<clipPath id="clip0_144_1043">
<rect width="22" height="22" fill="white"/>
</clipPath>
</defs>
</svg>
