<svg width="26" height="19" viewBox="0 0 26 19" fill="none" xmlns="http://www.w3.org/2000/svg">
<path d="M12.989 0.442731C12.9846 0.42511 12.9802 0.409692 12.9736 0.394273C12.9692 0.376652 12.9648 0.356828 12.9559 0.339207C12.9471 0.319383 12.9361 0.301762 12.9273 0.284141C12.9207 0.270925 12.9141 0.257709 12.9053 0.244493C12.8656 0.185022 12.8128 0.132159 12.7533 0.092511C12.7401 0.0837005 12.7269 0.0770924 12.7115 0.0704845C12.6938 0.0616739 12.6762 0.0506609 12.6586 0.0418503C12.641 0.0352424 12.6211 0.0308369 12.6035 0.024229C12.5881 0.0198237 12.5727 0.0132159 12.5551 0.0110133C12.5198 0.00440533 12.4824 0 12.4471 0H10.0661C9.76211 0 9.51542 0.246696 9.51542 0.550661C9.51542 0.854626 9.76211 1.10132 10.0661 1.10132H11.1189L8.38546 3.8348C7.5 3.12115 6.37665 2.69163 5.15418 2.69163C2.31278 2.69163 0 5.0022 0 7.84582C0 10.6894 2.31278 13 5.15418 13C7.99559 13 10.3084 10.6872 10.3084 7.84582C10.3084 6.62335 9.87885 5.4978 9.1652 4.61454L11.8987 1.88106V2.93172C11.8987 3.23568 12.1454 3.48238 12.4493 3.48238C12.7533 3.48238 13 3.23568 13 2.93172V0.550661C13 0.515419 12.9956 0.477974 12.989 0.442731ZM5.15418 11.8965C2.9207 11.8965 1.10132 10.0793 1.10132 7.84361C1.10132 5.60793 2.9185 3.79075 5.15418 3.79075C7.38987 3.79075 9.20705 5.60793 9.20705 7.84361C9.20705 10.0793 7.38987 11.8965 5.15418 11.8965Z" fill="#7A87CD"/>
<path d="M18.1674 12.2429C20.9637 12.2377 23.2037 9.95718 23.1588 7.16125C23.137 5.80621 22.5876 4.53339 21.6141 3.57714C20.6405 2.62089 19.3581 2.09443 18.0044 2.09848C15.2081 2.10369 12.9681 4.38422 13.0131 7.18015C13.0324 8.38497 13.4733 9.48784 14.1894 10.3572L12.1018 12.4826L11.2201 11.6166C11.0051 11.4055 10.6617 11.4061 10.4536 11.6181C10.2454 11.83 10.2509 12.1734 10.4659 12.3845L11.3475 13.2505L10.6295 13.9815C10.4214 14.1934 10.4269 14.5368 10.6419 14.7479C10.8568 14.959 11.2002 14.9584 11.4084 14.7465L12.1264 14.0155L13.008 14.8815C13.223 15.0926 13.5664 15.092 13.7746 14.88C13.9827 14.6681 13.9772 14.3247 13.7622 14.1136L12.8806 13.2476L14.9682 11.1222C15.8503 11.8226 16.9625 12.2452 18.1674 12.2429ZM18.0203 3.18221C19.0873 3.18022 20.0951 3.59376 20.8599 4.34499C21.6247 5.09622 22.0562 6.0964 22.0734 7.16327C22.1087 9.36138 20.3469 11.1551 18.1485 11.1592C15.9501 11.1633 14.1307 9.37625 14.0954 7.17813C14.0601 4.98002 15.8219 3.18631 18.0203 3.18221Z" fill="#C97CB1"/>
</svg>
