<svg width="30" height="30" viewBox="0 0 30 30" fill="none" xmlns="http://www.w3.org/2000/svg">
<g clip-path="url(#clip0_4_877)">
<mask id="mask0_4_877" style="mask-type:luminance" maskUnits="userSpaceOnUse" x="0" y="0" width="30" height="30">
<path d="M30 0H0V30H30V0Z" fill="white"/>
</mask>
<g mask="url(#mask0_4_877)">
<path d="M4.375 6.32568V23.6756C4.375 24.1881 3.95 24.6131 3.4375 24.6131C2.925 24.6131 2.5 24.1881 2.5 23.6756V6.32568C2.5 5.81318 2.925 5.38818 3.4375 5.38818C3.95 5.38818 4.375 5.81318 4.375 6.32568Z" fill="#FF62BE"/>
<path d="M27.5 6.32568V23.6756C27.5 24.1881 27.075 24.6131 26.5625 24.6131C26.05 24.6131 25.625 24.1881 25.625 23.6756V6.32568C25.625 5.81318 26.05 5.38818 26.5625 5.38818C27.075 5.38818 27.5 5.81318 27.5 6.32568Z" fill="#FF62BE"/>
<path opacity="0.4" d="M9.50012 26.5625H20.5001C22.5751 26.5625 24.2501 24.8875 24.2501 22.8125V7.1875C24.2501 5.1125 22.5751 3.4375 20.5001 3.4375H9.50012C7.42512 3.4375 5.75012 5.1125 5.75012 7.1875V22.8125C5.75012 24.8875 7.42512 26.5625 9.50012 26.5625Z" fill="#FF62BE"/>
</g>
</g>
<defs>
<clipPath id="clip0_4_877">
<rect width="30" height="30" fill="white"/>
</clipPath>
</defs>
</svg>
