<svg width="30" height="30" viewBox="0 0 30 30" fill="none" xmlns="http://www.w3.org/2000/svg">
<g clip-path="url(#clip0_30_1382)">
<mask id="mask0_30_1382" style="mask-type:luminance" maskUnits="userSpaceOnUse" x="0" y="0" width="30" height="30">
<path d="M30 0H0V30H30V0Z" fill="white"/>
</mask>
<g mask="url(#mask0_30_1382)">
<path d="M4.375 6.32617V23.6761C4.375 24.1886 3.95 24.6136 3.4375 24.6136C2.925 24.6136 2.5 24.1886 2.5 23.6761V6.32617C2.5 5.81367 2.925 5.38867 3.4375 5.38867C3.95 5.38867 4.375 5.81367 4.375 6.32617Z" fill="white"/>
<path d="M27.5 6.32617V23.6761C27.5 24.1886 27.075 24.6136 26.5625 24.6136C26.05 24.6136 25.625 24.1886 25.625 23.6761V6.32617C25.625 5.81367 26.05 5.38867 26.5625 5.38867C27.075 5.38867 27.5 5.81367 27.5 6.32617Z" fill="white"/>
<path opacity="0.4" d="M9.50012 26.5625H20.5001C22.5751 26.5625 24.2501 24.8875 24.2501 22.8125V7.1875C24.2501 5.1125 22.5751 3.4375 20.5001 3.4375H9.50012C7.42512 3.4375 5.75012 5.1125 5.75012 7.1875V22.8125C5.75012 24.8875 7.42512 26.5625 9.50012 26.5625Z" fill="white"/>
</g>
</g>
<defs>
<clipPath id="clip0_30_1382">
<rect width="30" height="30" fill="white"/>
</clipPath>
</defs>
</svg>
