<svg width="368" height="368" viewBox="0 0 368 368" fill="none" xmlns="http://www.w3.org/2000/svg">
<mask id="mask0_289_793" style="mask-type:alpha" maskUnits="userSpaceOnUse" x="57" y="80" width="254" height="288">
<path d="M183.882 220.5C222.427 220.5 253.674 189.253 253.674 150.708C253.674 112.163 222.427 80.9165 183.882 80.9165C145.338 80.9165 114.091 112.163 114.091 150.708C114.091 189.253 145.338 220.5 183.882 220.5Z" fill="white"/>
<path d="M183.881 255.396C113.95 255.396 57 302.296 57 360.083C57 363.991 60.0708 367.062 63.9792 367.062H303.783C307.692 367.062 310.762 363.991 310.762 360.083C310.762 302.296 253.812 255.396 183.881 255.396Z" fill="white"/>
</mask>
<g mask="url(#mask0_289_793)">
<circle cx="184" cy="184" r="184" fill="#8F8F8F"/>
</g>
<circle cx="184" cy="184" r="183.5" fill="black" fill-opacity="0.3" stroke="white"/>
</svg>
