<svg width="40" height="40" viewBox="0 0 40 40" fill="none" xmlns="http://www.w3.org/2000/svg">
<mask id="mask0_4_894" style="mask-type:alpha" maskUnits="userSpaceOnUse" x="0" y="0" width="40" height="40">
<circle cx="20" cy="20" r="20" fill="white"/>
</mask>
<g mask="url(#mask0_4_894)">
<path d="M20.1305 22.1441C23.7602 22.1441 26.7026 19.2017 26.7026 15.5721C26.7026 11.9424 23.7602 9 20.1305 9C16.5009 9 13.5585 11.9424 13.5585 15.5721C13.5585 19.2017 16.5009 22.1441 20.1305 22.1441Z" fill="#626262"/>
<path d="M20.1304 25.4302C13.5452 25.4302 8.1824 29.8466 8.1824 35.2883C8.1824 35.6563 8.47157 35.9455 8.83961 35.9455L20.1304 43.0434L31.4212 35.9455C31.7893 35.9455 32.0784 35.6563 32.0784 35.2883C32.0784 29.8466 26.7156 25.4302 20.1304 25.4302Z" fill="#626262"/>
</g>
</svg>
