<svg width="18" height="18" viewBox="0 0 18 18" fill="none" xmlns="http://www.w3.org/2000/svg">
<path d="M16.8752 6.20363C16.8469 7.18284 16.4443 8.11394 15.7502 8.80519L13.3068 11.25C12.9509 11.6078 12.5276 11.8914 12.0614 12.0845C11.5952 12.2776 11.0953 12.3764 10.5906 12.375H10.5871C10.0739 12.3746 9.56588 12.2714 9.09318 12.0714C8.62049 11.8714 8.19267 11.5787 7.83499 11.2106C7.47731 10.8425 7.19703 10.4065 7.0107 9.92823C6.82437 9.44999 6.73578 8.93926 6.75016 8.4262C6.75435 8.27702 6.81764 8.13561 6.9261 8.03309C7.03455 7.93057 7.17929 7.87533 7.32848 7.87952C7.47766 7.88372 7.61907 7.94701 7.72159 8.05546C7.82411 8.16392 7.87935 8.30866 7.87516 8.45784C7.86491 8.82061 7.92749 9.18174 8.05919 9.51991C8.19088 9.85807 8.38902 10.1664 8.64191 10.4267C8.89479 10.687 9.19728 10.8939 9.53151 11.0353C9.86573 11.1768 10.2249 11.2497 10.5878 11.25C10.9446 11.2509 11.2979 11.1811 11.6275 11.0446C11.9571 10.9081 12.2564 10.7076 12.508 10.4547L14.9514 8.01136C15.4555 7.5009 15.7372 6.81172 15.735 6.09429C15.7327 5.37687 15.4467 4.68947 14.9394 4.18217C14.4321 3.67487 13.7447 3.38888 13.0273 3.38664C12.3099 3.38439 11.6207 3.66607 11.1102 4.17019L10.3368 4.94363C10.2304 5.04466 10.0888 5.10016 9.94216 5.09828C9.79548 5.0964 9.65534 5.0373 9.55162 4.93357C9.44789 4.82985 9.38879 4.6897 9.38691 4.54303C9.38503 4.39635 9.44053 4.25474 9.54156 4.14839L10.315 3.37495C10.6718 3.018 11.0955 2.73484 11.5618 2.54165C12.0281 2.34846 12.5279 2.24902 13.0326 2.24902C13.5373 2.24902 14.0371 2.34846 14.5034 2.54165C14.9697 2.73484 15.3933 3.018 15.7502 3.37495C16.1198 3.74547 16.4101 4.18732 16.6035 4.67362C16.7969 5.15991 16.8893 5.68048 16.8752 6.20363ZM7.66422 13.0542L6.89078 13.8276C6.63852 14.0816 6.33829 14.2828 6.00755 14.4197C5.67681 14.5566 5.32216 14.6264 4.96422 14.625C4.42724 14.6245 3.90245 14.4649 3.45613 14.1664C3.00982 13.8678 2.66202 13.4436 2.45668 12.9475C2.25133 12.4513 2.19766 11.9054 2.30245 11.3788C2.40723 10.8521 2.66577 10.3683 3.04539 9.98855L5.48453 7.54519C5.86871 7.15898 6.36014 6.89722 6.89499 6.79389C7.42985 6.69056 7.98342 6.75045 8.4838 6.96576C8.98419 7.18108 9.40827 7.54188 9.70097 8.00131C9.99367 8.46074 10.1415 8.99756 10.1252 9.54206C10.121 9.69125 10.1762 9.83599 10.2787 9.94444C10.3812 10.0529 10.5227 10.1162 10.6718 10.1204C10.821 10.1246 10.9658 10.0693 11.0742 9.96682C11.1827 9.86429 11.246 9.72289 11.2502 9.5737C11.2637 9.05137 11.1709 8.53174 10.9775 8.04634C10.7841 7.56095 10.4941 7.11989 10.1252 6.74995C9.40458 6.02969 8.42746 5.62508 7.40863 5.62508C6.38981 5.62508 5.41269 6.02969 4.69211 6.74995L2.25016 9.19331C1.71313 9.73012 1.34729 10.4141 1.19885 11.1587C1.05042 11.9034 1.12606 12.6754 1.41622 13.377C1.70637 14.0787 2.19802 14.6787 2.82903 15.101C3.46004 15.5234 4.20209 15.7492 4.96141 15.75C5.46616 15.7514 5.96619 15.6527 6.43254 15.4596C6.8989 15.2665 7.32231 14.9828 7.67828 14.625L8.45172 13.8515C8.54275 13.7443 8.59031 13.6069 8.58501 13.4663C8.57972 13.3257 8.52196 13.1923 8.42312 13.0922C8.32428 12.9921 8.19154 12.9327 8.05106 12.9257C7.91058 12.9186 7.77257 12.9645 7.66422 13.0542Z" fill="white"/>
</svg>
