<svg width="35" height="35" viewBox="0 0 35 35" fill="none" xmlns="http://www.w3.org/2000/svg">
<g clip-path="url(#clip0_4_459)">
<mask id="mask0_4_459" style="mask-type:luminance" maskUnits="userSpaceOnUse" x="0" y="0" width="35" height="35">
<path d="M35 0H0V35H35V0Z" fill="white"/>
</mask>
<g mask="url(#mask0_4_459)">
<path opacity="0.4" d="M30.0711 12.6876C28.5545 5.9355 22.6628 2.91675 17.5003 2.91675C17.5003 2.91675 17.5003 2.91675 17.4857 2.91675C12.3379 2.91675 6.46078 5.9355 4.92953 12.673C3.2087 20.198 7.81703 26.5709 11.9879 30.5959C13.5337 32.0834 15.517 32.8272 17.5003 32.8272C19.4836 32.8272 21.467 32.0834 22.9982 30.5959C27.1691 26.5709 31.7774 20.2126 30.0711 12.6876Z" fill="white"/>
<path d="M15.677 20.0514C15.3999 20.0514 15.1228 19.9494 14.904 19.7306L12.7166 17.5431C12.2937 17.1202 12.2937 16.4202 12.7166 15.9973C13.1395 15.5744 13.8395 15.5744 14.2624 15.9973L15.677 17.4119L20.7374 12.3514C21.1603 11.9285 21.8603 11.9285 22.2832 12.3514C22.7061 12.7743 22.7061 13.4743 22.2832 13.8972L16.4499 19.7306C16.2311 19.9494 15.954 20.0514 15.677 20.0514Z" fill="white"/>
</g>
</g>
<defs>
<clipPath id="clip0_4_459">
<rect width="35" height="35" fill="white"/>
</clipPath>
</defs>
</svg>
