<svg width="46" height="46" viewBox="0 0 46 46" fill="none" xmlns="http://www.w3.org/2000/svg">
<path opacity="0.4" d="M16 11.96V34.017C16 41.4 20.6189 46 28.0092 46H33.9907C41.381 46 45.9999 41.4 45.9999 34.04V11.96C46.023 4.6 41.4041 0 34.0138 0H28.0092C20.6189 0 16 4.6 16 11.96Z" fill="#F16B6B"/>
<path d="M8.15574 13.5212L0.497232 21.281C-0.165744 21.9527 -0.165744 23.0646 0.497232 23.7363L8.15574 31.4962C8.81872 32.1679 9.91606 32.1679 10.579 31.4962C11.242 30.8244 11.242 29.7126 10.579 29.0408L5.84676 24.2459H30.2854C31.2227 24.2459 32 23.4584 32 22.5087C32 21.5589 31.2227 20.7714 30.2854 20.7714H5.84676L10.579 15.9765C10.922 15.6291 11.082 15.189 11.082 14.7489C11.082 14.3088 10.922 13.8455 10.579 13.5212C9.91606 12.8263 8.84158 12.8263 8.15574 13.5212Z" fill="#F16B6B"/>
</svg>
