<svg width="30" height="30" viewBox="0 0 30 30" fill="none" xmlns="http://www.w3.org/2000/svg">
<path d="M29.9746 1.02169C29.9644 0.981023 29.9543 0.945442 29.939 0.909861C29.9288 0.869197 29.9187 0.82345 29.8983 0.782785C29.878 0.737038 29.8526 0.696374 29.8323 0.65571C29.817 0.625212 29.8018 0.594714 29.7814 0.564215C29.6899 0.426974 29.5679 0.304981 29.4307 0.213487C29.4002 0.193155 29.3697 0.177906 29.3341 0.162657C29.2935 0.142324 29.2528 0.11691 29.2121 0.0965777C29.1715 0.0813286 29.1257 0.0711621 29.0851 0.0559131C29.0495 0.045747 29.0139 0.0304982 28.9732 0.0254152C28.8919 0.0101661 28.8055 0 28.7242 0H23.2294C22.528 0 21.9587 0.569299 21.9587 1.27076C21.9587 1.97221 22.528 2.54151 23.2294 2.54151H25.6591L19.3511 8.84954C17.3077 7.20264 14.7154 6.21145 11.8943 6.21145C5.33717 6.21145 0 11.5435 0 18.1057C0 24.6679 5.33717 30 11.8943 30C18.4514 30 23.7885 24.6628 23.7885 18.1057C23.7885 15.2847 22.7974 12.6872 21.1505 10.6489L27.4585 4.3409V6.7655C27.4585 7.46696 28.0278 8.03626 28.7292 8.03626C29.4307 8.03626 30 7.46696 30 6.7655V1.27076C30 1.18943 29.9898 1.10302 29.9746 1.02169ZM11.8943 27.4534C6.74009 27.4534 2.54151 23.2599 2.54151 18.1006C2.54151 12.9414 6.735 8.74788 11.8943 8.74788C17.0535 8.74788 21.247 12.9414 21.247 18.1006C21.247 23.2599 17.0535 27.4534 11.8943 27.4534Z" fill="white"/>
</svg>
