<svg width="35" height="35" viewBox="0 0 35 35" fill="none" xmlns="http://www.w3.org/2000/svg">
<g clip-path="url(#clip0_4_474)">
<mask id="mask0_4_474" style="mask-type:luminance" maskUnits="userSpaceOnUse" x="0" y="0" width="35" height="35">
<path d="M35 0H0V35H35V0Z" fill="white"/>
</mask>
<g mask="url(#mask0_4_474)">
<path opacity="0.4" d="M27.8836 13.3005C27.3148 13.3005 26.8628 13.7526 26.8628 14.3213V16.6255C26.8628 21.788 22.6628 25.988 17.5003 25.988C12.3377 25.988 8.13774 21.788 8.13774 16.6255V14.3067C8.13774 13.738 7.68565 13.2859 7.1169 13.2859C6.54815 13.2859 6.09607 13.738 6.09607 14.3067V16.611C6.09607 22.5464 10.6607 27.4318 16.4794 27.9568V31.063C16.4794 31.6318 16.9315 32.0839 17.5003 32.0839C18.069 32.0839 18.5211 31.6318 18.5211 31.063V27.9568C24.3253 27.4464 28.9044 22.5464 28.9044 16.611V14.3067C28.8899 13.7526 28.4378 13.3005 27.8836 13.3005Z" fill="white"/>
<path d="M17.5001 2.91675C13.9417 2.91675 11.0542 5.80425 11.0542 9.36258V16.8292C11.0542 20.3876 13.9417 23.2751 17.5001 23.2751C21.0584 23.2751 23.9459 20.3876 23.9459 16.8292V9.36258C23.9459 5.80425 21.0584 2.91675 17.5001 2.91675ZM19.4105 13.0522C19.3084 13.4313 18.973 13.6792 18.5938 13.6792C18.5209 13.6792 18.448 13.6647 18.3751 13.6501C17.8063 13.4897 17.2084 13.4897 16.6396 13.6501C16.173 13.7813 15.7209 13.5042 15.6042 13.0522C15.473 12.6001 15.7501 12.1334 16.2021 12.0167C17.0626 11.7834 17.9667 11.7834 18.8271 12.0167C19.2646 12.1334 19.5271 12.6001 19.4105 13.0522ZM20.1834 10.223C20.0521 10.573 19.7313 10.7772 19.3813 10.7772C19.2792 10.7772 19.1917 10.7626 19.0896 10.7334C18.0688 10.3542 16.9313 10.3542 15.9105 10.7334C15.473 10.8938 14.9771 10.6605 14.8167 10.223C14.6563 9.7855 14.8896 9.28966 15.3271 9.14383C16.7271 8.63341 18.273 8.63341 19.673 9.14383C20.1105 9.30425 20.3438 9.7855 20.1834 10.223Z" fill="white"/>
</g>
</g>
<defs>
<clipPath id="clip0_4_474">
<rect width="35" height="35" fill="white"/>
</clipPath>
</defs>
</svg>
