<svg width="24" height="24" viewBox="0 0 24 24" fill="none" xmlns="http://www.w3.org/2000/svg">
<g clip-path="url(#clip0_4_900)">
<mask id="mask0_4_900" style="mask-type:luminance" maskUnits="userSpaceOnUse" x="0" y="0" width="24" height="24">
<path d="M24 0H0V24H24V0Z" fill="white"/>
</mask>
<g mask="url(#mask0_4_900)">
<path opacity="0.4" d="M20.0995 17.56C20.532 17.56 20.8841 17.2124 20.8896 16.78C20.8896 16.22 20.5596 15.78 19.9996 15.45L19.2196 15.12C18.7796 15.01 18.4396 14.68 18.4396 14.23L17.7696 7.90001C17.5496 6.34001 16.5496 5.12001 15.0996 4.46001L13.6596 3.90001C13.2196 3.68001 12.8796 3.23001 12.7696 2.79001L12.7003 2.54417C12.6112 2.22822 12.3229 2.01001 11.9946 2.01001C11.6663 2.01001 11.3781 2.22822 11.2889 2.54417L11.2196 2.79001C11.1096 3.23001 10.7796 3.68001 10.3296 3.90001L8.88961 4.46001C7.44961 5.13001 6.44961 6.35001 6.21961 7.90001L5.54961 14.23C5.54961 14.67 5.21961 15.01 4.76961 15.12L3.98961 15.45C3.42961 15.78 3.09961 16.23 3.09961 16.78C3.09961 17.2108 3.44883 17.56 3.87961 17.56H20.0995Z" fill="white"/>
<path d="M7.55957 17.5601C7.55957 20.0001 9.55957 22.0001 11.9996 22.0001C14.4396 22.0001 16.4396 20.0001 16.4396 17.5601" fill="white"/>
</g>
</g>
<defs>
<clipPath id="clip0_4_900">
<rect width="24" height="24" fill="white"/>
</clipPath>
</defs>
</svg>
