<svg width="21" height="21" viewBox="0 0 21 21" fill="none" xmlns="http://www.w3.org/2000/svg">
<path d="M5.11876 3.06241C5.2283 2.93187 5.28276 2.76385 5.27063 2.59387C5.2585 2.4239 5.18073 2.26531 5.05377 2.15164C4.92681 2.03798 4.76061 1.97816 4.59034 1.98484C4.42006 1.99151 4.25906 2.06416 4.14139 2.18741C3.06642 3.38638 2.35397 4.86591 2.08689 6.45391C2.06218 6.62371 2.10496 6.79643 2.20607 6.93507C2.30717 7.07371 2.45855 7.16724 2.62777 7.19561C2.797 7.22399 2.97061 7.18496 3.1114 7.08688C3.2522 6.9888 3.34898 6.83948 3.38101 6.67091C3.60688 5.3278 4.2095 4.07643 5.11876 3.06241ZM16.8586 2.18741C16.8013 2.12261 16.7318 2.06976 16.654 2.03193C16.5762 1.99409 16.4917 1.97201 16.4054 1.96695C16.319 1.96188 16.2325 1.97394 16.1509 2.00243C16.0692 2.03092 15.9939 2.07527 15.9295 2.13294C15.865 2.19061 15.8126 2.26045 15.7752 2.33846C15.7378 2.41646 15.7162 2.50109 15.7116 2.58747C15.7071 2.67385 15.7196 2.76028 15.7486 2.84179C15.7776 2.9233 15.8223 2.99828 15.8804 3.06241C16.7899 4.07635 17.3928 5.32772 17.619 6.67091C17.6478 6.84264 17.7436 6.9959 17.8854 7.09699C17.9556 7.14704 18.035 7.18277 18.119 7.20215C18.203 7.22152 18.29 7.22416 18.375 7.20991C18.46 7.19566 18.5414 7.16481 18.6145 7.1191C18.6876 7.0734 18.751 7.01374 18.8011 6.94354C18.8511 6.87334 18.8869 6.79397 18.9062 6.70996C18.9256 6.62595 18.9283 6.53894 18.914 6.45391C18.6464 4.86574 17.9342 3.3862 16.8586 2.18741Z" fill="white"/>
<path fill-rule="evenodd" clip-rule="evenodd" d="M10.5 1.96875C8.93355 1.96875 7.43128 2.59101 6.32364 3.69865C5.216 4.80629 4.59374 6.30857 4.59374 7.875V8.53125C4.59643 10.3155 3.93557 12.0371 2.73961 13.3612C2.66779 13.4409 2.6166 13.537 2.59051 13.641C2.56442 13.7451 2.56423 13.8539 2.58996 13.9581C2.61569 14.0622 2.66656 14.1584 2.73811 14.2384C2.80965 14.3183 2.8997 14.3794 3.00036 14.4165C4.35136 14.9152 5.76536 15.2828 7.22749 15.5041C7.19457 15.954 7.25476 16.4058 7.4043 16.8314C7.55384 17.257 7.78952 17.6471 8.09662 17.9775C8.40372 18.3079 8.77564 18.5714 9.18916 18.7516C9.60268 18.9318 10.0489 19.0248 10.5 19.0248C10.9511 19.0248 11.3973 18.9318 11.8108 18.7516C12.2243 18.5714 12.5963 18.3079 12.9034 17.9775C13.2105 17.6471 13.4461 17.257 13.5957 16.8314C13.7452 16.4058 13.8054 15.954 13.7725 15.5041C15.2145 15.2855 16.6305 14.9208 17.9987 14.4156C18.0992 14.3785 18.1891 14.3174 18.2606 14.2375C18.332 14.1577 18.3828 14.0615 18.4085 13.9575C18.4342 13.8535 18.4341 13.7448 18.4081 13.6409C18.3821 13.5369 18.3311 13.4409 18.2595 13.3612C17.0638 12.037 16.4033 10.3154 16.4062 8.53125V7.875C16.4062 6.30857 15.784 4.80629 14.6763 3.69865C13.5687 2.59101 12.0664 1.96875 10.5 1.96875ZM8.53124 15.75C8.53124 15.7203 8.53124 15.6914 8.53299 15.6625C9.84167 15.7804 11.1583 15.7804 12.467 15.6625L12.4687 15.75C12.4687 16.2721 12.2613 16.7729 11.8921 17.1421C11.5229 17.5113 11.0221 17.7188 10.5 17.7188C9.97784 17.7188 9.47708 17.5113 9.10787 17.1421C8.73866 16.7729 8.53124 16.2721 8.53124 15.75Z" fill="white"/>
</svg>
