<svg width="36" height="36" viewBox="0 0 36 36" fill="none" xmlns="http://www.w3.org/2000/svg">
<g clip-path="url(#clip0_4_224)">
<mask id="mask0_4_224" style="mask-type:luminance" maskUnits="userSpaceOnUse" x="0" y="0" width="36" height="36">
<path d="M36 0H0V36H36V0Z" fill="white"/>
</mask>
<g mask="url(#mask0_4_224)">
<path opacity="0.4" d="M31.3649 16.6805C31.3649 24.0155 26.0399 30.8855 18.7649 32.8955C18.2699 33.0305 17.7297 33.0305 17.2347 32.8955C9.95977 30.8855 4.63477 24.0155 4.63477 16.6805V10.0955C4.63477 8.86547 5.5648 7.47047 6.7198 7.00547L15.0747 3.58547C16.9497 2.82047 19.0647 2.82047 20.9397 3.58547L29.2947 7.00547C30.4347 7.47047 31.3799 8.86547 31.3799 10.0955L31.3649 16.6805Z" fill="white"/>
<path d="M21.75 15.75C21.75 13.68 20.07 12 18 12C15.93 12 14.25 13.68 14.25 15.75C14.25 17.43 15.36 18.825 16.875 19.305V23.25C16.875 23.865 17.385 24.375 18 24.375C18.615 24.375 19.125 23.865 19.125 23.25V19.305C20.64 18.825 21.75 17.43 21.75 15.75Z" fill="white"/>
</g>
</g>
<defs>
<clipPath id="clip0_4_224">
<rect width="36" height="36" fill="white"/>
</clipPath>
</defs>
</svg>
