<svg width="20" height="20" viewBox="0 0 20 20" fill="none" xmlns="http://www.w3.org/2000/svg">
<g clip-path="url(#clip0_30_1463)">
<mask id="mask0_30_1463" style="mask-type:luminance" maskUnits="userSpaceOnUse" x="4" y="3" width="13" height="13">
<path d="M16.6667 3.33301H4.44446V15.5552H16.6667V3.33301Z" fill="white"/>
</mask>
<g mask="url(#mask0_30_1463)">
<path d="M11.2991 11.598C11.2991 11.2874 11.4926 11.0328 11.7982 10.9462L12.287 10.8189C12.5468 10.7425 12.7352 10.5541 12.8065 10.2994L12.9389 9.81564L12.9694 9.72906C13.0662 9.47443 13.3107 9.30638 13.5907 9.30638C13.8759 9.30638 14.1051 9.47953 14.2019 9.73416L14.3597 10.3045C14.375 10.3555 14.3954 10.4013 14.4208 10.4471C15.2204 9.52536 14.8792 8.41006 13.3769 7.66145L9.01759 5.48182C6.08425 4.02025 4.8824 5.2221 6.34907 8.15034L6.79212 9.03647C6.91944 9.29619 6.91944 9.59666 6.79212 9.85638L6.34907 10.7374C4.8824 13.6656 6.07916 14.8675 9.01249 13.4008L11.5588 12.1277C11.4009 12.0055 11.2991 11.817 11.2991 11.598ZM8.98194 9.82073C8.77314 9.82073 8.59999 9.64758 8.59999 9.43879C8.59999 9.22999 8.77314 9.05684 8.98194 9.05684H11.7319C11.9407 9.05684 12.1139 9.22999 12.1139 9.43879C12.1139 9.64758 11.9407 9.82073 11.7319 9.82073H8.98194Z" fill="white"/>
<path d="M15.3731 11.6082C15.3731 11.6439 15.3528 11.7254 15.256 11.7559L14.7569 11.8934C14.3241 12.0105 13.9981 12.3365 13.881 12.7693L13.7486 13.2582C13.718 13.3703 13.6315 13.3805 13.5907 13.3805C13.55 13.3805 13.4634 13.3703 13.4329 13.2582L13.3005 12.7643C13.1833 12.3365 12.8523 12.0105 12.4245 11.8934L11.9305 11.761C11.8236 11.7305 11.8134 11.6388 11.8134 11.6031C11.8134 11.5624 11.8236 11.4707 11.9305 11.4402L12.4296 11.3078C12.8574 11.1855 13.1833 10.8596 13.3005 10.4318L13.443 9.9124C13.4787 9.82582 13.5602 9.81055 13.5907 9.81055C13.6213 9.81055 13.7079 9.82073 13.7384 9.90221L13.881 10.4268C13.9981 10.8545 14.3292 11.1805 14.7569 11.3027L15.2662 11.4453C15.368 11.486 15.3731 11.5777 15.3731 11.6082Z" fill="white"/>
</g>
</g>
<defs>
<clipPath id="clip0_30_1463">
<rect width="12.2222" height="12.2222" fill="white" transform="translate(4.44446 3.33301)"/>
</clipPath>
</defs>
</svg>
