<svg width="14" height="14" viewBox="0 0 14 14" fill="none" xmlns="http://www.w3.org/2000/svg">
<g clip-path="url(#clip0_144_2020)">
<mask id="mask0_144_2020" style="mask-type:luminance" maskUnits="userSpaceOnUse" x="0" y="0" width="14" height="14">
<path d="M14 0H0V14H14V0Z" fill="white"/>
</mask>
<g mask="url(#mask0_144_2020)">
<path d="M11.0484 3.16127L8.03256 1.4171C7.45506 1.0846 6.55089 1.0846 5.97339 1.4171L2.92838 3.17293C1.72088 3.9896 1.65088 4.1121 1.65088 5.41293V8.58046C1.65088 9.8813 1.72088 10.0096 2.95171 10.838L5.96756 12.5821C6.25922 12.7513 6.63256 12.833 7.00006 12.833C7.36756 12.833 7.74089 12.7513 8.02672 12.5821L11.0717 10.8263C12.2792 10.0096 12.3492 9.88713 12.3492 8.58629V5.41293C12.3492 4.1121 12.2792 3.9896 11.0484 3.16127ZM7.00006 8.89546C5.95589 8.89546 5.10421 8.0438 5.10421 6.99963C5.10421 5.95546 5.95589 5.10377 7.00006 5.10377C8.04422 5.10377 8.89589 5.95546 8.89589 6.99963C8.89589 8.0438 8.04422 8.89546 7.00006 8.89546Z" fill="white"/>
</g>
</g>
<defs>
<clipPath id="clip0_144_2020">
<rect width="14" height="14" fill="white"/>
</clipPath>
</defs>
</svg>
