<svg width="20" height="20" viewBox="0 0 20 20" fill="none" xmlns="http://www.w3.org/2000/svg">
<path fill-rule="evenodd" clip-rule="evenodd" d="M13.125 3.75021C13.125 3.16906 13.3274 2.60605 13.6975 2.15798C14.0675 1.7099 14.5822 1.40475 15.1529 1.29499C15.7235 1.18524 16.3146 1.27773 16.8245 1.55657C17.3344 1.83541 17.7312 2.28318 17.9467 2.82288C18.1623 3.36259 18.183 3.96052 18.0055 4.51388C17.8279 5.06724 17.4631 5.54144 16.9738 5.85497C16.4844 6.1685 15.9012 6.30176 15.3243 6.23185C14.7473 6.16193 14.2128 5.89321 13.8125 5.47188L6.79501 9.37104C6.90223 9.78364 6.90223 10.2168 6.79501 10.6294L13.8125 14.5285C14.2319 14.0876 14.7977 13.8148 15.4038 13.7612C16.01 13.7076 16.6149 13.8769 17.1051 14.2374C17.5953 14.5979 17.9372 15.1249 18.0667 15.7195C18.1962 16.314 18.1044 16.9354 17.8085 17.4671C17.5126 17.9989 17.0329 18.4044 16.4594 18.6078C15.8859 18.8111 15.2579 18.7983 14.6931 18.5717C14.1284 18.3451 13.6656 17.9203 13.3917 17.377C13.1177 16.8336 13.0514 16.209 13.205 15.6202L6.18751 11.7219C5.84322 12.0844 5.39816 12.3353 4.9098 12.4423C4.42145 12.5493 3.91223 12.5074 3.44792 12.322C2.98362 12.1367 2.58555 11.8164 2.30513 11.4025C2.02471 10.9886 1.87482 10.5001 1.87482 10.0002C1.87482 9.50027 2.02471 9.01182 2.30513 8.59793C2.58555 8.18405 2.98362 7.86374 3.44792 7.67839C3.91223 7.49303 4.42145 7.45114 4.9098 7.55812C5.39816 7.66511 5.84322 7.91605 6.18751 8.27854L13.205 4.37938C13.1517 4.1739 13.1249 3.96248 13.125 3.75021Z" fill="white"/>
</svg>
