<svg width="48" height="55" viewBox="0 0 48 55" fill="none" xmlns="http://www.w3.org/2000/svg">
<g clip-path="url(#clip0_29_590)">
<path d="M40.0607 49.0546L32.9818 53.0607C28.3711 55.6707 22.7921 55.6367 18.1664 53.0148L2.37355 44.0581C0.172554 42.8101 -0.366434 40.2356 1.04184 38.1985C3.24884 35.0052 7.38509 33.7912 10.9163 35.5974C11.4628 35.8772 11.9357 36.2577 12.5798 36.4383L0.735565 16.1902C-0.791319 13.5787 0.147031 10.2921 2.73538 8.81467C5.28469 7.35939 8.6132 8.16623 10.1731 10.7304L15.7026 20.1608C17.3166 18.1785 19.9395 17.499 22.3431 18.556C23.7995 15.6528 27.3562 14.6032 30.2103 16.3146C31.2282 14.7779 32.9022 13.8807 34.7129 13.9237C36.5235 13.9666 38.148 14.886 39.1073 16.4715L46.0136 28.3077C50.2564 35.5811 47.4444 44.8724 40.0607 49.0517V49.0546ZM33.0839 19.9876L35.0432 23.3452C35.5296 24.1802 35.1452 25.215 34.306 25.6222C33.5178 26.0056 32.5599 25.7347 32.084 24.9249L29.0843 19.8158C28.4762 18.781 27.1175 18.5338 26.1626 19.1378C25.1972 19.7477 24.918 20.9736 25.5065 21.9832L28.4987 27.1144C28.9807 27.942 28.5558 28.962 27.7541 29.3544C26.9388 29.7526 25.9885 29.455 25.505 28.6304L21.8447 22.3903C21.2321 21.3451 19.8629 21.1038 18.902 21.7241C17.9412 22.3444 17.6784 23.554 18.2745 24.5725L21.9002 30.7593C22.3837 31.5839 22.0699 32.5832 21.3177 33.0199C20.5055 33.4922 19.4801 33.2642 18.9816 32.4115L7.26498 12.424C6.66444 11.401 5.34925 11.1626 4.4199 11.6986C3.49056 12.2345 3.03415 13.4588 3.62268 14.464L18.7249 40.2771C19.1498 41.0025 18.9861 41.8167 18.4351 42.3408C17.8841 42.8649 17.1109 42.9463 16.4323 42.5644L9.29632 38.542C7.35957 37.4494 5.02045 38.3155 3.83437 40.0905C3.65571 40.3585 3.47104 40.8322 3.85239 41.0484L19.8569 50.1354C23.4662 52.1843 27.8441 52.1443 31.4219 50.1117L38.6179 46.0242C44.2555 42.8234 46.3499 35.5722 43.092 29.9895L36.1842 18.1474C35.6587 17.2458 34.5222 17.0178 33.6904 17.499C32.8587 17.9801 32.5449 19.0712 33.0809 19.9905L33.0839 19.9876Z" fill="white"/>
<path d="M18.8827 9.73964L13.3201 9.70263C12.3442 9.6967 11.6056 8.94168 11.6146 7.98087L11.6716 2.55652C11.6821 1.60459 12.5214 0.920628 13.3652 0.936913C14.3756 0.957639 15.0887 1.76892 15.0377 2.76674C15.0182 3.15758 15.0167 3.51141 15.0572 3.8978C23.0429 -2.42666 34.7806 -0.885515 40.8085 7.27914C41.295 7.93793 40.9211 8.97721 40.3311 9.40506C39.681 9.87584 38.591 9.87436 38.0791 9.19039C33.1921 2.64535 23.8236 1.39289 17.3273 6.38051C17.8632 6.44713 18.2401 6.42936 18.704 6.42344C19.6559 6.4116 20.4081 7.05707 20.4936 7.93497C20.5792 8.81288 19.9186 9.74704 18.8782 9.74112L18.8827 9.73964Z" fill="white"/>
</g>
<defs>
<clipPath id="clip0_29_590">
<rect width="48" height="55" fill="white"/>
</clipPath>
</defs>
</svg>
