<svg width="54" height="54" viewBox="0 0 54 54" fill="none" xmlns="http://www.w3.org/2000/svg">
<g clip-path="url(#clip0_30_1163)">
<mask id="mask0_30_1163" style="mask-type:luminance" maskUnits="userSpaceOnUse" x="0" y="0" width="54" height="54">
<path d="M54 0H0V54H54V0Z" fill="white"/>
</mask>
<g mask="url(#mask0_30_1163)">
<path opacity="0.4" d="M47.4525 48.375C47.4525 49.005 46.9575 49.5 46.3275 49.5H7.67261C7.04261 49.5 6.54761 49.005 6.54761 48.375C6.54761 39.06 15.7276 31.5 27 31.5C29.3175 31.5 31.5675 31.815 33.6375 32.4225C32.31 33.9975 31.5 36.045 31.5 38.25C31.5 39.9375 31.9725 41.535 32.805 42.885C33.255 43.65 33.84 44.3475 34.515 44.9325C36.09 46.3725 38.1825 47.25 40.5 47.25C43.02 47.25 45.2925 46.215 46.9125 44.55C47.2725 45.765 47.4525 47.0475 47.4525 48.375Z" fill="#E63D4F"/>
<path d="M49.23 36.0895C49.005 35.212 48.645 34.3345 48.15 33.547C47.8125 32.962 47.3625 32.3995 46.8675 31.882C45.2475 30.262 43.1325 29.3845 40.9725 29.272C38.52 29.1145 36.0225 30.0145 34.1325 31.882C32.355 33.6595 31.455 36.022 31.5 38.3845C31.5225 40.6345 32.4225 42.8845 34.1325 44.617C35.325 45.8095 36.7875 46.597 38.34 46.957C39.195 47.182 40.095 47.272 40.995 47.2045C43.1325 47.1145 45.225 46.2595 46.8675 44.617C49.185 42.2995 49.9725 39.037 49.23 36.0895ZM44.1 41.8495C43.4475 42.502 42.3675 42.502 41.715 41.8495L40.4775 40.612L39.285 41.8045C38.6325 42.457 37.5525 42.457 36.9 41.8045C36.2475 41.1295 36.2475 40.072 36.9 39.4195L38.0925 38.227L36.945 37.102C36.2925 36.427 36.2925 35.3695 36.945 34.6945C37.62 34.042 38.6775 34.042 39.3525 34.6945L40.4775 35.842L41.67 34.6495C42.3225 33.997 43.38 33.997 44.055 34.6495C44.7075 35.302 44.7075 36.382 44.055 37.0345L42.8625 38.227L44.1 39.4645C44.7525 40.117 44.7525 41.197 44.1 41.8495Z" fill="#E63D4F"/>
<path d="M27 27C33.2132 27 38.25 21.9632 38.25 15.75C38.25 9.53681 33.2132 4.5 27 4.5C20.7868 4.5 15.75 9.53681 15.75 15.75C15.75 21.9632 20.7868 27 27 27Z" fill="#E63D4F"/>
</g>
</g>
<defs>
<clipPath id="clip0_30_1163">
<rect width="54" height="54" fill="white"/>
</clipPath>
</defs>
</svg>
