<svg width="37" height="37" viewBox="0 0 37 37" fill="none" xmlns="http://www.w3.org/2000/svg">
<mask id="mask0_22_261" style="mask-type:alpha" maskUnits="userSpaceOnUse" x="0" y="0" width="37" height="37">
<circle cx="18.5" cy="18.5" r="18.5" fill="black" fill-opacity="0.5"/>
</mask>
<g mask="url(#mask0_22_261)">
<path d="M18.6208 20.4835C21.9782 20.4835 24.6999 17.7618 24.6999 14.4044C24.6999 11.0469 21.9782 8.3252 18.6208 8.3252C15.2633 8.3252 12.5416 11.0469 12.5416 14.4044C12.5416 17.7618 15.2633 20.4835 18.6208 20.4835Z" fill="white"/>
<path d="M18.6206 23.5229C12.5293 23.5229 7.56873 27.6081 7.56873 32.6417C7.56873 32.9821 7.83621 33.2496 8.17664 33.2496L18.6206 39.8152L29.0646 33.2496C29.4051 33.2496 29.6726 32.9821 29.6726 32.6417C29.6726 27.6081 24.712 23.5229 18.6206 23.5229Z" fill="white"/>
</g>
</svg>
