<svg width="26" height="26" viewBox="0 0 26 26" fill="none" xmlns="http://www.w3.org/2000/svg">
<g clip-path="url(#clip0_144_2440)">
<mask id="mask0_144_2440" style="mask-type:luminance" maskUnits="userSpaceOnUse" x="0" y="0" width="26" height="26">
<path d="M26 0H0V26H26V0Z" fill="white"/>
</mask>
<g mask="url(#mask0_144_2440)">
<path d="M22.9125 6.68409C22.4684 6.44575 21.5367 6.19658 20.2692 7.08492L18.6767 8.21159C18.5575 4.84242 17.095 3.52075 13.5417 3.52075H7.04171C3.33671 3.52075 1.89587 4.96159 1.89587 8.66658V17.3333C1.89587 19.8249 3.25004 22.4791 7.04171 22.4791H13.5417C17.095 22.4791 18.5575 21.1574 18.6767 17.7883L20.2692 18.9149C20.9409 19.3916 21.5259 19.5433 21.9917 19.5433C22.3925 19.5433 22.7067 19.4241 22.9125 19.3158C23.3567 19.0883 24.1042 18.4708 24.1042 16.9216V9.07825C24.1042 7.52909 23.3567 6.91159 22.9125 6.68409ZM11.9167 12.3283C10.8009 12.3283 9.88004 11.4183 9.88004 10.2916C9.88004 9.16492 10.8009 8.25492 11.9167 8.25492C13.0325 8.25492 13.9534 9.16492 13.9534 10.2916C13.9534 11.4183 13.0325 12.3283 11.9167 12.3283Z" fill="white"/>
</g>
</g>
<defs>
<clipPath id="clip0_144_2440">
<rect width="26" height="26" fill="white"/>
</clipPath>
</defs>
</svg>
