<svg width="30" height="30" viewBox="0 0 30 30" fill="none" xmlns="http://www.w3.org/2000/svg">
<g clip-path="url(#clip0_22_243)">
<mask id="mask0_22_243" style="mask-type:luminance" maskUnits="userSpaceOnUse" x="0" y="0" width="30" height="30">
<path d="M30 0H0V30H30V0Z" fill="white"/>
</mask>
<g mask="url(#mask0_22_243)">
<path opacity="0.4" d="M8.45021 27.5H21.5502C25.0002 27.5 26.3752 25.3875 26.5377 22.8125L27.1877 12.4875C27.3627 9.7875 25.2127 7.5 22.5002 7.5C21.7377 7.5 21.0377 7.0625 20.6877 6.3875L19.7877 4.575C19.2127 3.4375 17.7127 2.5 16.4377 2.5H13.5752C12.2877 2.5 10.7877 3.4375 10.2127 4.575L9.31271 6.3875C8.96271 7.0625 8.26271 7.5 7.50021 7.5C4.78771 7.5 2.63771 9.7875 2.81271 12.4875L3.46271 22.8125C3.61271 25.3875 5.00021 27.5 8.45021 27.5Z" fill="#FF62BE"/>
<path d="M16.875 10.9375H13.125C12.6125 10.9375 12.1875 10.5125 12.1875 10C12.1875 9.4875 12.6125 9.0625 13.125 9.0625H16.875C17.3875 9.0625 17.8125 9.4875 17.8125 10C17.8125 10.5125 17.3875 10.9375 16.875 10.9375Z" fill="#FF62BE"/>
<path d="M15.0001 22.6624C17.3335 22.6624 19.2251 20.7708 19.2251 18.4374C19.2251 16.104 17.3335 14.2124 15.0001 14.2124C12.6667 14.2124 10.7751 16.104 10.7751 18.4374C10.7751 20.7708 12.6667 22.6624 15.0001 22.6624Z" fill="#FF62BE"/>
</g>
</g>
<defs>
<clipPath id="clip0_22_243">
<rect width="30" height="30" fill="white"/>
</clipPath>
</defs>
</svg>
