<svg width="26" height="26" viewBox="0 0 26 26" fill="none" xmlns="http://www.w3.org/2000/svg">
<g clip-path="url(#clip0_144_2414)">
<mask id="mask0_144_2414" style="mask-type:luminance" maskUnits="userSpaceOnUse" x="0" y="0" width="26" height="26">
<path d="M26 0H0V26H26V0Z" fill="white"/>
</mask>
<g mask="url(#mask0_144_2414)">
<path d="M11.9708 16.1959L9.96663 18.2001C9.54413 18.6226 8.87246 18.6226 8.43913 18.2109C8.31996 18.0917 8.20079 17.9834 8.08163 17.8642C6.96579 16.7376 5.95829 15.5567 5.05913 14.3217C4.17079 13.0867 3.45579 11.8517 2.93579 10.6276C2.42663 9.39258 2.16663 8.21175 2.16663 7.08508C2.16663 6.34841 2.29663 5.64425 2.55663 4.99425C2.81663 4.33341 3.22829 3.72675 3.80246 3.18508C4.49579 2.50258 5.25413 2.16675 6.05579 2.16675C6.35913 2.16675 6.66246 2.23175 6.93329 2.36175C7.21496 2.49175 7.46413 2.68675 7.65913 2.96841L10.1725 6.51091C10.3675 6.78175 10.5083 7.03091 10.6058 7.26925C10.7033 7.49675 10.7575 7.72425 10.7575 7.93008C10.7575 8.19008 10.6816 8.45008 10.53 8.69925C10.3891 8.94841 10.1833 9.20841 9.92329 9.46841L9.09996 10.3242C8.98079 10.4434 8.92663 10.5842 8.92663 10.7576C8.92663 10.8442 8.93746 10.9201 8.95913 11.0067C8.99163 11.0934 9.02413 11.1584 9.04579 11.2234C9.24079 11.5809 9.57663 12.0467 10.0533 12.6101C10.5408 13.1734 11.0608 13.7476 11.6241 14.3217C11.7325 14.4301 11.8516 14.5384 11.96 14.6467C12.3933 15.0692 12.4041 15.7626 11.9708 16.1959Z" fill="white"/>
<path d="M23.8009 19.8565C23.8009 20.1598 23.7467 20.474 23.6384 20.7773C23.6059 20.864 23.5734 20.9507 23.53 21.0373C23.3459 21.4273 23.1075 21.7957 22.7934 22.1423C22.2625 22.7273 21.6775 23.1498 21.0167 23.4207C21.0059 23.4207 20.995 23.4315 20.9842 23.4315C20.345 23.6915 19.6517 23.8323 18.9042 23.8323C17.7992 23.8323 16.6184 23.5723 15.3725 23.0415C14.1267 22.5107 12.8809 21.7957 11.6459 20.8965C11.2234 20.5823 10.8009 20.2682 10.4 19.9323L13.9425 16.3898C14.2459 16.6173 14.5167 16.7907 14.7442 16.9098C14.7984 16.9315 14.8634 16.964 14.9392 16.9965C15.0259 17.029 15.1125 17.0398 15.21 17.0398C15.3942 17.0398 15.535 16.9748 15.6542 16.8557L16.4775 16.0432C16.7484 15.7723 17.0084 15.5665 17.2575 15.4365C17.5067 15.2848 17.7559 15.209 18.0267 15.209C18.2325 15.209 18.4492 15.2523 18.6875 15.3498C18.9259 15.4473 19.175 15.5882 19.4459 15.7723L23.0317 18.3182C23.3134 18.5132 23.5084 18.7407 23.6275 19.0115C23.7359 19.2823 23.8009 19.5532 23.8009 19.8565Z" fill="white"/>
</g>
</g>
<defs>
<clipPath id="clip0_144_2414">
<rect width="26" height="26" fill="white"/>
</clipPath>
</defs>
</svg>
